<svg width="28" height="31" viewBox="0 0 28 31" fill="none" xmlns="http://www.w3.org/2000/svg">
<path d="M24.5 0.5H5C3.191 0.5 0.5 1.6985 0.5 5V26C0.5 29.3015 3.191 30.5 5 30.5H27.5V27.5H5.018C4.325 27.482 3.5 27.2075 3.5 26C3.5 25.8485 3.5135 25.7135 3.536 25.5905C3.704 24.728 4.4105 24.515 5.0165 24.5H26C26.027 24.5 26.0465 24.4865 26.0735 24.485H27.5V3.5C27.5 1.8455 26.1545 0.5 24.5 0.5ZM24.5 21.5H3.5V5C3.5 3.791 4.325 3.518 5 3.5H15.5V14L18.5 12.5L21.5 14V3.5H24.5V21.5Z" fill="#0E17F9"/>
</svg>
