<svg width="22" height="22" viewBox="0 0 22 22" fill="none" xmlns="http://www.w3.org/2000/svg">
<path d="M12.6667 16V18.5C12.6667 19.163 12.4618 19.7989 12.0972 20.2678C11.7325 20.7366 11.2379 21 10.7222 21H2.94445C2.42875 21 1.93417 20.7366 1.56952 20.2678C1.20486 19.7989 1 19.163 1 18.5V3.5C1 2.83696 1.20486 2.20107 1.56952 1.73223C1.93417 1.26339 2.42875 1 2.94445 1H10.3333C11.4072 1 12.6667 2.11937 12.6667 3.5V6" stroke="#0E17F9" stroke-width="2" stroke-linecap="round" stroke-linejoin="round"/>
<path d="M16 16L21 11L16 6" stroke="#0E17F9" stroke-width="2" stroke-linecap="round" stroke-linejoin="round"/>
<path d="M4.33252 11H19.3325" stroke="#0E17F9" stroke-width="2" stroke-linecap="round" stroke-linejoin="round"/>
</svg>
