<svg width="30" height="29" viewBox="0 0 30 29" fill="none" xmlns="http://www.w3.org/2000/svg">
<path d="M27.099 18.0389L23.3289 15.5721L24.7805 12.9109C25.1306 12.2464 25.314 11.5067 25.315 10.7557V6.53691C25.3179 5.35068 24.9743 4.18943 24.3265 3.19574C23.6786 2.20205 22.7547 1.41918 21.6681 0.943275C20.5815 0.467366 19.3796 0.319131 18.21 0.516773C17.0403 0.714415 15.9539 1.24933 15.084 2.05583L16.3583 3.43144C16.961 2.87414 17.7133 2.50482 18.5229 2.36878C19.3324 2.23274 20.1641 2.33589 20.9159 2.66557C21.6677 2.99525 22.307 3.53713 22.7553 4.22479C23.2037 4.91245 23.4416 5.716 23.44 6.53691V10.7557C23.4398 11.193 23.335 11.624 23.1344 12.0126L20.8542 16.1932L26.0724 19.6077C26.4169 19.8331 26.6995 20.141 26.8947 20.5035C27.0899 20.8659 27.1914 21.2714 27.19 21.6831V24.8182H22.9712V26.6932H29.065V21.683C29.0669 20.9599 28.888 20.2478 28.5447 19.6114C28.2013 18.9749 27.7044 18.4344 27.099 18.0389Z" fill="#0E17F9"/>
<path d="M18.6616 19.9139L14.8915 17.4471L16.343 14.7859C16.6931 14.1214 16.8766 13.3817 16.8775 12.6307V8.4119C16.8763 6.79485 16.2337 5.24431 15.0907 4.10043C13.9478 2.95656 12.3977 2.31277 10.7807 2.3103C7.42225 2.3103 4.69002 5.04751 4.69002 8.4119V12.6307C4.68644 13.3814 4.86786 14.1215 5.21824 14.7854L6.6777 17.4611L2.92951 19.9139C2.32483 20.3088 1.82833 20.8484 1.48507 21.4838C1.14181 22.1192 0.962659 22.8303 0.963867 23.5525L0.93457 28.5682H20.6275V23.558C20.6294 22.8349 20.4506 22.1228 20.1072 21.4863C19.7639 20.8499 19.267 20.3094 18.6616 19.9139ZM18.7525 26.6932H2.82047L2.83863 23.558C2.83722 23.1464 2.93871 22.7409 3.13388 22.3784C3.32906 22.0159 3.61172 21.708 3.95619 21.4826L9.1524 18.0825L6.86426 13.8876C6.6659 13.4984 6.56331 13.0675 6.56502 12.6307V8.4119C6.56502 7.29302 7.00949 6.21997 7.80066 5.4288C8.59183 4.63763 9.66489 4.19315 10.7838 4.19315C11.9027 4.19315 12.9757 4.63763 13.7669 5.4288C14.558 6.21997 15.0025 7.29302 15.0025 8.4119V12.6307C15.0023 13.068 14.8976 13.499 14.697 13.8876L12.4167 18.0682L17.635 21.4826C17.9794 21.7081 18.2621 22.016 18.4573 22.3785C18.6524 22.7409 18.7539 23.1464 18.7525 23.5581V26.6932Z" fill="#0E17F9"/>
</svg>
