<svg width="46" height="34" viewBox="0 0 46 34" fill="none" xmlns="http://www.w3.org/2000/svg">
<path d="M41.7502 0.333336H4.25016C3.14509 0.333336 2.08529 0.772322 1.30388 1.55372C0.522483 2.33513 0.0834961 3.39493 0.0834961 4.5V29.5C0.0834961 30.6051 0.522483 31.6649 1.30388 32.4463C2.08529 33.2277 3.14509 33.6667 4.25016 33.6667H41.7502C42.8552 33.6667 43.915 33.2277 44.6964 32.4463C45.4778 31.6649 45.9168 30.6051 45.9168 29.5V4.5C45.9168 3.39493 45.4778 2.33513 44.6964 1.55372C43.915 0.772322 42.8552 0.333336 41.7502 0.333336ZM4.25016 4.5H20.9168V29.5H4.25016V4.5ZM41.7502 29.5H23.0002V4.5H41.7564L41.7502 29.5ZM39.6668 20.125C39.6668 19.5521 39.1981 19.0833 38.6252 19.0833H36.5418C35.9689 19.0833 35.5002 19.5521 35.5002 20.125V26.375C35.5002 26.9479 35.9689 27.4167 36.5418 27.4167H38.6252C39.1981 27.4167 39.6668 26.9479 39.6668 26.375V20.125ZM33.4168 7.625C33.4168 7.05208 32.9481 6.58333 32.3752 6.58333H26.1252C25.5522 6.58333 25.0835 7.05208 25.0835 7.625V18.0417C25.0835 18.6146 25.5522 19.0833 26.1252 19.0833H32.3752C32.9481 19.0833 33.4168 18.6146 33.4168 18.0417V7.625ZM36.5418 12.8333H38.6252C39.1981 12.8333 39.6668 12.3646 39.6668 11.7917C39.6668 11.2188 39.1981 10.75 38.6252 10.75H36.5418C35.9689 10.75 35.5002 11.2188 35.5002 11.7917C35.5002 12.3646 35.9689 12.8333 36.5418 12.8333ZM36.5418 17H38.6252C39.1981 17 39.6668 16.5312 39.6668 15.9583C39.6668 15.3854 39.1981 14.9167 38.6252 14.9167H36.5418C35.9689 14.9167 35.5002 15.3854 35.5002 15.9583C35.5002 16.5312 35.9689 17 36.5418 17ZM26.1252 23.25H32.3752C32.9481 23.25 33.4168 22.7812 33.4168 22.2083C33.4168 21.6354 32.9481 21.1667 32.3752 21.1667H26.1252C25.5522 21.1667 25.0835 21.6354 25.0835 22.2083C25.0835 22.7812 25.5522 23.25 26.1252 23.25ZM32.3752 25.3333H26.1252C25.5522 25.3333 25.0835 25.8021 25.0835 26.375C25.0835 26.9479 25.5522 27.4167 26.1252 27.4167H32.3752C32.9481 27.4167 33.4168 26.9479 33.4168 26.375C33.4168 25.8021 32.9481 25.3333 32.3752 25.3333ZM36.5418 8.66667H38.6252C39.1981 8.66667 39.6668 8.19792 39.6668 7.625C39.6668 7.05208 39.1981 6.58333 38.6252 6.58333H36.5418C35.9689 6.58333 35.5002 7.05208 35.5002 7.625C35.5002 8.19792 35.9689 8.66667 36.5418 8.66667ZM18.8335 7.625C18.8335 7.05208 18.3647 6.58333 17.7918 6.58333H7.37516C6.80225 6.58333 6.3335 7.05208 6.3335 7.625V13.875C6.3335 14.4479 6.80225 14.9167 7.37516 14.9167H17.7918C18.3647 14.9167 18.8335 14.4479 18.8335 13.875V7.625ZM17.7939 21.1667H7.37725C6.80641 21.1667 6.33558 21.6354 6.33558 22.2083C6.33558 22.7812 6.80641 23.25 7.37725 23.25H17.7939C18.3647 23.25 18.8335 22.7812 18.8335 22.2083C18.8335 21.6354 18.3647 21.1667 17.7939 21.1667ZM17.7939 17H7.37725C6.80641 17 6.33558 17.4688 6.33558 18.0417C6.33558 18.6146 6.80641 19.0833 7.37725 19.0833H17.7939C18.3647 19.0833 18.8335 18.6146 18.8335 18.0417C18.8335 17.4688 18.3647 17 17.7939 17ZM17.7939 25.3333H7.37725C6.80641 25.3333 6.33558 25.8021 6.33558 26.375C6.33558 26.9479 6.80641 27.4167 7.37725 27.4167H17.7939C18.3647 27.4167 18.8335 26.9479 18.8335 26.375C18.8335 25.8021 18.3647 25.3333 17.7939 25.3333Z" fill="#0E17F9"/>
</svg>
