<svg width="27" height="31" viewBox="0 0 27 31" fill="none" xmlns="http://www.w3.org/2000/svg">
<path d="M24 3.5H19.5V0.5H16.5V3.5H10.5V0.5H7.5V3.5H3C1.3455 3.5 0 4.8455 0 6.5V27.5C0 29.1545 1.3455 30.5 3 30.5H24C25.6545 30.5 27 29.1545 27 27.5V6.5C27 4.8455 25.6545 3.5 24 3.5ZM3 27.5V8H24V6.5L24.003 27.5H3Z" fill="#0E17F9"/>
<path d="M18.9418 15.7745L16.2418 13.076L18.2968 11.0195L20.9968 13.718L18.9418 15.7745ZM7.50732 21.8015V24.5H10.2058L17.6698 17.045L14.9713 14.3465L7.50732 21.8015Z" fill="#0E17F9"/>
</svg>
