<svg width="38" height="42" viewBox="0 0 38 42" fill="none" xmlns="http://www.w3.org/2000/svg">
<path d="M8.5835 18.9167H12.7502V23.0833H8.5835V18.9167ZM8.5835 27.25H12.7502V31.4167H8.5835V27.25ZM16.9168 18.9167H21.0835V23.0833H16.9168V18.9167ZM16.9168 27.25H21.0835V31.4167H16.9168V27.25ZM25.2502 18.9167H29.4168V23.0833H25.2502V18.9167ZM25.2502 27.25H29.4168V31.4167H25.2502V27.25Z" fill="#0E17F9"/>
<path d="M4.41667 41.8333H33.5833C35.8812 41.8333 37.75 39.9646 37.75 37.6667V8.50001C37.75 6.20209 35.8812 4.33334 33.5833 4.33334H29.4167V0.166672H25.25V4.33334H12.75V0.166672H8.58333V4.33334H4.41667C2.11875 4.33334 0.25 6.20209 0.25 8.50001V37.6667C0.25 39.9646 2.11875 41.8333 4.41667 41.8333ZM33.5833 12.6667L33.5854 37.6667H4.41667V12.6667H33.5833Z" fill="#0E17F9"/>
</svg>
