<svg width="31" height="31" viewBox="0 0 31 31" fill="none" xmlns="http://www.w3.org/2000/svg">
<path d="M27.3137 16.3166V15.5V14.6727L29.3767 12.8675C29.757 12.5324 30.0065 12.0735 30.0812 11.5722C30.1559 11.0708 30.051 10.5591 29.785 10.1276L27.2492 5.82977C27.0608 5.50341 26.7899 5.23234 26.4636 5.04375C26.1373 4.85516 25.7672 4.75568 25.3904 4.7553C25.1568 4.75351 24.9246 4.7898 24.7027 4.86274L22.0918 5.74381C21.641 5.44426 21.1708 5.17504 20.6842 4.93796L20.1362 2.23029C20.038 1.73561 19.7689 1.29125 19.376 0.974991C18.9831 0.658733 18.4915 0.490731 17.9873 0.500395H12.9588C12.4545 0.490731 11.9629 0.658733 11.5701 0.974991C11.1772 1.29125 10.9081 1.73561 10.8098 2.23029L10.2618 4.93796C9.77181 5.17499 9.29801 5.44419 8.84354 5.74381L6.2863 4.81977C6.06206 4.76134 5.82984 4.73957 5.59864 4.7553C5.2218 4.75568 4.85168 4.85516 4.52542 5.04375C4.19916 5.23234 3.92823 5.50341 3.73981 5.82977L1.20406 10.1276C0.953264 10.5585 0.86007 11.0631 0.940438 11.5552C1.02081 12.0472 1.26973 12.4959 1.64459 12.8246L3.67534 14.6834V16.3273L1.64459 18.1325C1.25915 18.4634 1.00341 18.9202 0.922762 19.4218C0.842116 19.9233 0.941777 20.4373 1.20406 20.8724L3.73981 25.1702C3.92823 25.4966 4.19916 25.7677 4.52542 25.9562C4.85168 26.1448 5.2218 26.2443 5.59864 26.2447C5.83218 26.2465 6.06445 26.2102 6.2863 26.1373L8.89727 25.2562C9.34805 25.5557 9.81828 25.825 10.3048 26.062L10.8528 28.7697C10.9511 29.2644 11.2202 29.7088 11.613 30.025C12.0059 30.3413 12.4975 30.5093 13.0017 30.4996H18.0732C18.5775 30.5093 19.0691 30.3413 19.4619 30.025C19.8548 29.7088 20.1239 29.2644 20.2222 28.7697L20.7702 26.062C21.2602 25.825 21.734 25.5558 22.1885 25.2562L24.7887 26.1373C25.0105 26.2102 25.2428 26.2465 25.4763 26.2447C25.8532 26.2443 26.2233 26.1448 26.5496 25.9562C26.8758 25.7677 27.1468 25.4966 27.3352 25.1702L29.785 20.8724C30.0358 20.4415 30.129 19.9369 30.0486 19.4448C29.9682 18.9528 29.7193 18.5041 29.3444 18.1754L27.3137 16.3166ZM25.3904 24.0958L21.705 22.8494C20.8422 23.5801 19.8562 24.1514 18.7931 24.5363L18.0303 28.3936H12.9588L12.1959 24.5793C11.1412 24.1834 10.1605 23.6132 9.29482 22.8924L5.59864 24.0958L3.06289 19.7979L5.98545 17.2192C5.78678 16.1069 5.78678 14.9683 5.98545 13.8561L3.06289 11.2021L5.59864 6.90424L9.28408 8.15062C10.1468 7.41987 11.1328 6.84864 12.1959 6.46371L12.9588 2.60636H18.0303L18.7931 6.42073C19.8478 6.81659 20.8285 7.38683 21.6942 8.10764L25.3904 6.90424L27.9261 11.2021L25.0036 13.7808C25.2022 14.8931 25.2022 16.0317 25.0036 17.1439L27.9261 19.7979L25.3904 24.0958Z" fill="#0E17F9"/>
<path d="M15.4942 21.9469C14.2191 21.9469 12.9727 21.5688 11.9125 20.8604C10.8524 20.152 10.026 19.1451 9.5381 17.9671C9.05016 16.7891 8.92249 15.4929 9.17124 14.2423C9.41999 12.9918 10.034 11.8431 10.9356 10.9415C11.8372 10.0399 12.9859 9.42585 14.2365 9.1771C15.487 8.92835 16.7833 9.05602 17.9613 9.54396C19.1393 10.0319 20.1461 10.8582 20.8545 11.9184C21.5629 12.9786 21.941 14.225 21.941 15.5C21.9496 16.3491 21.7888 17.1912 21.4678 17.9773C21.1469 18.7634 20.6724 19.4775 20.072 20.0779C19.4716 20.6782 18.7575 21.1528 17.9714 21.4737C17.1854 21.7946 16.3432 21.9555 15.4942 21.9469V21.9469ZM15.4942 11.2022C14.9262 11.1889 14.3614 11.2911 13.8339 11.5024C13.3065 11.7137 12.8274 12.0298 12.4257 12.4315C12.0239 12.8333 11.7078 13.3124 11.4965 13.8398C11.2852 14.3672 11.1831 14.932 11.1963 15.5C11.1831 16.0681 11.2852 16.6329 11.4965 17.1603C11.7078 17.6877 12.0239 18.1668 12.4257 18.5686C12.8274 18.9703 13.3065 19.2864 13.8339 19.4977C14.3614 19.709 14.9262 19.8112 15.4942 19.7979C16.0622 19.8112 16.627 19.709 17.1544 19.4977C17.6819 19.2864 18.1609 18.9703 18.5627 18.5686C18.9645 18.1668 19.2806 17.6877 19.4919 17.1603C19.7032 16.6329 19.8053 16.0681 19.7921 15.5C19.8053 14.932 19.7032 14.3672 19.4919 13.8398C19.2806 13.3124 18.9645 12.8333 18.5627 12.4315C18.1609 12.0298 17.6819 11.7137 17.1544 11.5024C16.627 11.2911 16.0622 11.1889 15.4942 11.2022Z" fill="#0E17F9"/>
</svg>
