<svg width="45" height="45" viewBox="0 0 45 45" fill="none" xmlns="http://www.w3.org/2000/svg">
<path d="M22.5 0C10.0736 0 0 10.0736 0 22.5C0 34.9264 10.0736 45 22.5 45C34.9263 45 45 34.9264 45 22.5C45 10.0736 34.9263 0 22.5 0ZM22.5 4.88891C32.2263 4.88891 40.1084 12.7761 40.1084 22.5C40.1084 32.2239 32.2263 40.1084 22.5 40.1084C12.7736 40.1084 4.89165 32.2239 4.89165 22.5C4.89169 12.7761 12.7736 4.88891 22.5 4.88891ZM31.1215 11.8158L18.0807 24.8593L13.851 20.6296L9.70091 24.7769L13.9307 29.0067L18.1082 33.1842L22.2556 29.0341L35.299 15.9933L31.1215 11.8158Z" fill="#0E17F9"/>
</svg>
