<svg width="39" height="39" viewBox="0 0 39 39" fill="none" xmlns="http://www.w3.org/2000/svg">
<path d="M19.6102 38.2C9.27016 38.2 0.910156 29.84 0.910156 19.5C0.910156 9.16 9.27016 0.800003 19.6102 0.800003C29.9502 0.800003 38.3102 9.16 38.3102 19.5C38.3102 29.84 29.8402 38.2 19.6102 38.2ZM19.6102 3C10.4802 3 3.11016 10.37 3.11016 19.5C3.11016 28.63 10.4802 36 19.6102 36C28.7402 36 36.1102 28.63 36.1102 19.5C36.1102 10.37 28.6302 3 19.6102 3Z" fill="#0E17F9"/>
<path d="M8.66996 32.4117L7.55624 31.9167C7.81423 31.5681 8.20165 31.2441 8.7115 30.9231C9.35238 30.5196 10.1256 30.1568 10.9681 29.7615C11.0589 29.7189 11.1506 29.6759 11.243 29.6324C11.3683 29.5734 11.4967 29.5135 11.6272 29.4526C12.4517 29.0676 13.3583 28.6443 14.087 28.1873C14.5105 27.9218 14.9027 27.6277 15.1938 27.3C15.4848 26.9724 15.7101 26.57 15.7101 26.1V24.45V24.2158L15.5302 24.0659C14.9211 23.5583 13.9243 22.4528 13.7262 20.868L13.705 20.6978L13.5837 20.5764C13.0389 20.0317 12.3001 19.1702 12.3001 18.07C12.3001 17.4326 12.5737 16.8708 12.7973 16.4236L12.88 16.2582L12.8352 16.0787C12.6256 15.2404 12.4101 13.6312 12.4101 12.35C12.4101 10.3249 13.108 8.67584 14.3284 7.5309C15.5518 6.38321 17.3456 5.7 19.6101 5.7C20.2324 5.7 20.925 5.77822 21.5564 5.96766C22.1916 6.15822 22.7292 6.45029 23.0864 6.85218L23.1959 6.97533L23.3571 7.00927C25.1485 7.38642 26.8101 9.54023 26.8101 12.35C26.8101 14.1649 26.4892 15.6581 26.2793 16.3926L26.2158 16.615L26.3441 16.8073C26.514 17.0622 26.7001 17.5168 26.7001 18.07C26.7001 19.3124 26.0316 20.1548 25.4928 20.514L25.3023 20.6409L25.274 20.868C25.075 22.4598 24.1813 23.4548 23.58 23.9559L23.4001 24.1058V24.34V26.1C23.4001 26.5251 23.6142 26.8766 23.8765 27.1495C24.1388 27.4224 24.4898 27.6603 24.8666 27.8704C25.6202 28.2908 26.5918 28.6609 27.4645 28.9882L27.4672 28.9892C28.5151 29.3752 29.5473 29.774 30.4107 30.2842C31.084 30.682 31.6234 31.1299 31.9827 31.6614L30.8279 32.0869C30.7136 31.9408 30.5784 31.8099 30.4353 31.6927C30.1588 31.4662 29.8206 31.265 29.4587 31.084C28.738 30.7237 27.8578 30.4123 27.0346 30.1378C25.8106 29.6927 24.5853 29.2459 23.6589 28.6154C22.7505 27.9972 22.2001 27.2524 22.2001 26.21V23.6331L22.5073 23.4487L22.5175 23.4426L22.5274 23.436L22.2501 23.02C22.5274 23.436 22.5276 23.4359 22.5278 23.4358L22.5283 23.4355L22.5292 23.4349L22.5314 23.4333L22.5373 23.4293L22.5547 23.4172C22.5686 23.4073 22.5872 23.3937 22.6098 23.3765C22.655 23.3421 22.7164 23.2928 22.7885 23.2287C22.9324 23.1008 23.1214 22.9115 23.3101 22.66C23.6885 22.1554 24.0701 21.3927 24.0701 20.38V19.919L24.3961 19.756C24.4331 19.7456 24.4631 19.7337 24.4837 19.7251C24.5433 19.7001 24.6017 19.6676 24.657 19.6307C24.7683 19.5565 24.8864 19.4515 24.9945 19.3139C25.2155 19.0326 25.3901 18.6211 25.3901 18.07C25.3901 17.8265 25.2807 17.595 25.2034 17.4559C25.1189 17.3038 25.0101 17.1529 24.9137 17.0564L24.7068 16.8496L24.8043 16.6057L24.8115 16.5877L24.8173 16.5691L24.3401 16.42C24.8173 16.5691 24.8174 16.569 24.8174 16.569L24.8175 16.5687L24.8176 16.5681L24.8182 16.5665L24.8197 16.5613L24.8252 16.5434C24.8298 16.5281 24.8363 16.5062 24.8443 16.478C24.8605 16.4216 24.8832 16.34 24.9101 16.2358C24.964 16.0276 25.0351 15.7285 25.1061 15.3594C25.2478 14.6226 25.3901 13.6 25.3901 12.46C25.3901 11.321 25.061 10.3171 24.5787 9.58595C24.1141 8.88147 23.4321 8.33 22.6901 8.33H22.3132L22.1858 8.11762C22.1072 7.68073 21.7193 7.38701 21.3596 7.22102C20.9182 7.0173 20.3193 6.9 19.6101 6.9C17.817 6.9 16.3109 7.39226 15.2472 8.34808C14.1768 9.30984 13.6101 10.6912 13.6101 12.35C13.6101 13.1119 13.7547 14.1113 13.8926 14.8976C13.9624 15.2957 14.0322 15.6479 14.0845 15.9008C14.1107 16.0274 14.1326 16.1292 14.1479 16.1998L14.1659 16.2812L14.1707 16.3028L14.171 16.3041L14.2341 16.6196L14.0146 16.8939C13.955 16.9315 13.9072 16.9747 13.8705 17.0132C13.7915 17.0959 13.7271 17.1955 13.6766 17.2964C13.5745 17.5006 13.5001 17.7694 13.5001 18.07C13.5001 18.5203 13.7558 18.936 13.9789 19.2186C14.21 19.5113 14.489 19.7642 14.7003 19.9077L14.9301 20.08V20.38C14.9301 21.3585 15.356 22.0992 15.757 22.5928C15.9577 22.8398 16.1564 23.0303 16.2975 23.1605C16.3215 23.1826 16.3421 23.2015 16.3601 23.218V23.3031L16.6029 23.4487L16.9101 23.6331V26.21C16.9101 27.317 16.3216 28.1761 15.3468 28.92C14.363 29.6708 13.0507 30.2529 11.7283 30.8041C11.11 31.0294 10.3771 31.3394 9.76302 31.6679C9.45504 31.8326 9.16451 32.0085 8.93028 32.1877C8.84411 32.2536 8.75401 32.3283 8.66996 32.4117Z" fill="#050505" stroke="#0E17F9"/>
</svg>
