<svg width="23" height="22" viewBox="0 0 23 22" fill="none" xmlns="http://www.w3.org/2000/svg">
<path d="M3.8501 5H19.8501L18.2701 19.22C18.2159 19.7094 17.9832 20.1616 17.6164 20.49C17.2495 20.8184 16.7745 21 16.2821 21H7.4181C6.92573 21 6.45066 20.8184 6.08385 20.49C5.71703 20.1616 5.48426 19.7094 5.4301 19.22L3.8501 5Z" stroke="#0E17F9" stroke-width="2" stroke-linecap="round" stroke-linejoin="round"/>
<path d="M7.1951 2.147C7.35685 1.80397 7.6128 1.514 7.9331 1.31091C8.2534 1.10782 8.62484 0.999996 9.0041 1H14.6961C15.0755 0.999806 15.4472 1.10755 15.7677 1.31064C16.0882 1.51374 16.3443 1.80381 16.5061 2.147L17.8501 5H5.8501L7.1951 2.147Z" stroke="#0E17F9" stroke-width="2" stroke-linecap="round" stroke-linejoin="round"/>
<path d="M1.8501 5H21.8501" stroke="#0E17F9" stroke-width="2" stroke-linecap="round" stroke-linejoin="round"/>
<path d="M9.8501 10V15" stroke="#0E17F9" stroke-width="2" stroke-linecap="round" stroke-linejoin="round"/>
<path d="M13.8501 10V15" stroke="#0E17F9" stroke-width="2" stroke-linecap="round" stroke-linejoin="round"/>
</svg>
