<svg width="19" height="4" viewBox="0 0 19 4" fill="none" xmlns="http://www.w3.org/2000/svg">
<path d="M2.8501 4C2.31966 4 1.81096 3.78929 1.43588 3.41421C1.06081 3.03914 0.850098 2.53043 0.850098 2C0.850098 1.46957 1.06081 0.960859 1.43588 0.585786C1.81096 0.210713 2.31966 0 2.8501 0C3.38053 0 3.88924 0.210713 4.26431 0.585786C4.63938 0.960859 4.8501 1.46957 4.8501 2C4.8501 2.53043 4.63938 3.03914 4.26431 3.41421C3.88924 3.78929 3.38053 4 2.8501 4ZM9.51676 4C8.98633 4 8.47762 3.78929 8.10255 3.41421C7.72748 3.03914 7.51676 2.53043 7.51676 2C7.51676 1.46957 7.72748 0.960859 8.10255 0.585786C8.47762 0.210713 8.98633 0 9.51676 0C10.0472 0 10.5559 0.210713 10.931 0.585786C11.3061 0.960859 11.5168 1.46957 11.5168 2C11.5168 2.53043 11.3061 3.03914 10.931 3.41421C10.5559 3.78929 10.0472 4 9.51676 4ZM16.1834 4C15.653 4 15.1443 3.78929 14.7692 3.41421C14.3941 3.03914 14.1834 2.53043 14.1834 2C14.1834 1.46957 14.3941 0.960859 14.7692 0.585786C15.1443 0.210713 15.653 0 16.1834 0C16.7139 0 17.2226 0.210713 17.5976 0.585786C17.9727 0.960859 18.1834 1.46957 18.1834 2C18.1834 2.53043 17.9727 3.03914 17.5976 3.41421C17.2226 3.78929 16.7139 4 16.1834 4Z" fill="#0E17F9"/>
</svg>
