<svg width="12" height="12" viewBox="0 0 12 12" fill="none" xmlns="http://www.w3.org/2000/svg">
<path fill-rule="evenodd" clip-rule="evenodd" d="M6 0C2.68636 0 0 2.68636 0 6C0 9.31364 2.68636 12 6 12C9.31364 12 12 9.31364 12 6C12 2.68636 9.31364 0 6 0ZM6.54545 8.18182C6.54545 8.32648 6.48799 8.46522 6.38569 8.56751C6.2834 8.66981 6.14466 8.72727 6 8.72727C5.85534 8.72727 5.7166 8.66981 5.61431 8.56751C5.51201 8.46522 5.45455 8.32648 5.45455 8.18182V6.54545H3.81818C3.67352 6.54545 3.53478 6.48799 3.43249 6.38569C3.33019 6.2834 3.27273 6.14466 3.27273 6C3.27273 5.85534 3.33019 5.7166 3.43249 5.61431C3.53478 5.51201 3.67352 5.45455 3.81818 5.45455H5.45455V3.81818C5.45455 3.67352 5.51201 3.53478 5.61431 3.43249C5.7166 3.33019 5.85534 3.27273 6 3.27273C6.14466 3.27273 6.2834 3.33019 6.38569 3.43249C6.48799 3.53478 6.54545 3.67352 6.54545 3.81818V5.45455H8.18182C8.32648 5.45455 8.46522 5.51201 8.56751 5.61431C8.66981 5.7166 8.72727 5.85534 8.72727 6C8.72727 6.14466 8.66981 6.2834 8.56751 6.38569C8.46522 6.48799 8.32648 6.54545 8.18182 6.54545H6.54545V8.18182Z" fill="white"/>
</svg>
