<svg width="82" height="77" viewBox="0 0 82 77" fill="none" xmlns="http://www.w3.org/2000/svg">
<path fill-rule="evenodd" clip-rule="evenodd" d="M2.65014 16.2941L40.8824 1L79.1146 16.2941C79.4808 16.4404 79.7949 16.6931 80.0161 17.0195C80.2374 17.346 80.3558 17.7313 80.3561 18.1257V74.0263C80.3561 74.5498 80.1481 75.0518 79.778 75.4219C79.4078 75.7921 78.9058 76 78.3824 76H3.38238C2.85892 76 2.35691 75.7921 1.98677 75.4219C1.61663 75.0518 1.40869 74.5498 1.40869 74.0263V18.1257C1.40894 17.7313 1.52734 17.346 1.74862 17.0195C1.96989 16.6931 2.2839 16.4404 2.65014 16.2941Z" fill="#C92FFF" stroke="black" stroke-width="2" stroke-linejoin="round"/>
<path d="M40.8843 34.5518V54.2886" stroke="white" stroke-width="6" stroke-linecap="round"/>
<path d="M58.6476 44.4202C61.918 44.4202 64.5687 42.2097 64.5687 39.486C64.5687 36.7623 61.918 34.5518 58.6476 34.5518H53.3187C53.1616 34.5518 53.011 34.6141 52.9 34.7252C52.7889 34.8362 52.7266 34.9868 52.7266 35.1439V39.486C52.7266 42.2097 55.3772 44.4202 58.6476 44.4202Z" stroke="white" stroke-width="6"/>
<path d="M52.7266 34.5518V54.2886" stroke="white" stroke-width="6" stroke-linecap="round"/>
<path d="M17.2002 34.5518H29.0522L17.2002 54.2886H29.0522" stroke="white" stroke-width="6" stroke-linecap="round" stroke-linejoin="round"/>
</svg>
