<svg width="1049" height="304" viewBox="0 0 1049 304" fill="none" xmlns="http://www.w3.org/2000/svg">
<path d="M183 117.2C179.4 117.333 176.6 117.8 174.6 118.6C172.6 119.267 171.067 120.8 170 123.2C168.933 125.6 168.467 129.4 168.6 134.6L171.6 211.2C172 218 171.733 224 170.8 229.2C175.2 228.8 180.267 228.6 186 228.6V244H130.4V230.8C134 230.667 136.733 230.267 138.6 229.6C140.6 228.8 142.133 227.2 143.2 224.8C144.267 222.4 144.733 218.6 144.6 213.4L143 171L142.6 163.4C141.933 150.467 141.533 141.467 141.4 136.4H141.2L100.2 246H81.6L54.6 180.2C52.6 175.533 50.2 169 47.4 160.6C44.7333 152.2 42.4667 143.667 40.6 135H40.4C40.8 147.133 41 158.2 41 168.2V175L40.8 211.2C40.8 219.467 40.4667 225.467 39.8 229.2C44.2 228.8 49.2667 228.6 55 228.6V244H9.4V230.8C13 230.667 15.7333 230.267 17.6 229.6C19.4667 228.8 20.9333 227.2 22 224.8C23.0667 222.4 23.6 218.6 23.6 213.4L24.8 136.8C25.0667 127.067 25.3333 121.067 25.6 118.8L10.6 119.4V104H54.8L85 181.4C87 186.6 89.1333 192.333 91.4 198.6C93.6667 204.867 95.2667 209.667 96.2 213H96.4C96.9333 211.667 98.4 207.533 100.8 200.6C102.667 195.133 104.333 190.467 105.8 186.6L136.8 104H183V117.2ZM299.736 164.8C296.003 165.6 292.736 167.8 289.936 171.4C287.269 174.867 284.869 179.533 282.736 185.4L258.736 250.4C254.869 261.067 251.336 269.4 248.136 275.4C244.936 281.4 241.336 285.867 237.336 288.8C233.469 291.733 228.669 293.2 222.936 293.2C218.003 293.2 213.803 291.8 210.336 289C207.003 286.333 205.336 282.8 205.336 278.4C205.336 275.333 206.269 272.6 208.136 270.2C210.136 267.933 212.603 266.533 215.536 266C216.069 265.867 216.869 265.8 217.936 265.8C220.736 265.8 223.069 266.733 224.936 268.6C226.803 270.467 227.736 272.933 227.736 276C227.736 277.067 227.669 277.867 227.536 278.4V278.6C229.936 278.6 232.669 275.667 235.736 269.8C238.803 263.933 241.536 256.933 243.936 248.8L213.536 191C210.203 185 207.936 180.267 206.736 176.8C205.536 173.333 204.669 169.933 204.136 166.6L195.336 167V153H243.336V164.8C237.869 165.333 235.136 167.733 235.136 172C235.136 174 235.803 176.333 237.136 179L255.936 219.6H256.136L260.536 206.6C265.069 193 267.669 185.267 268.336 183.4C269.803 179.4 271.136 176 272.336 173.2C273.536 170.4 274.869 168.133 276.336 166.4V166.2L265.536 167V153H299.736V164.8Z" fill="#0024DF"/>
<path d="M183 117.2L183.111 120.198L186 120.091V117.2H183ZM174.6 118.6L175.549 121.446L175.632 121.418L175.714 121.385L174.6 118.6ZM170 123.2L167.259 121.982L167.259 121.982L170 123.2ZM168.6 134.6L165.601 134.677L165.602 134.697L165.602 134.717L168.6 134.6ZM171.6 211.2L168.602 211.317L168.603 211.347L168.605 211.376L171.6 211.2ZM170.8 229.2L167.847 228.67L167.152 232.544L171.072 232.188L170.8 229.2ZM186 228.6H189V225.6H186V228.6ZM186 244V247H189V244H186ZM130.4 244H127.4V247H130.4V244ZM130.4 230.8L130.289 227.802L127.4 227.909V230.8H130.4ZM138.6 229.6L139.609 232.425L139.662 232.406L139.714 232.385L138.6 229.6ZM143.2 224.8L145.941 226.018L145.941 226.018L143.2 224.8ZM144.6 213.4L147.599 213.323L147.599 213.305L147.598 213.287L144.6 213.4ZM143 171L145.998 170.887L145.997 170.865L145.996 170.842L143 171ZM142.6 163.4L139.604 163.554L139.604 163.558L142.6 163.4ZM141.4 136.4L144.399 136.321L144.322 133.4H141.4V136.4ZM141.2 136.4V133.4H139.119L138.39 135.349L141.2 136.4ZM100.2 246V249H102.281L103.01 247.051L100.2 246ZM81.6 246L78.8246 247.139L79.5883 249H81.6V246ZM54.6 180.2L57.3754 179.061L57.3666 179.04L57.3574 179.018L54.6 180.2ZM47.4 160.6L44.5406 161.508L44.5471 161.528L44.554 161.549L47.4 160.6ZM40.6 135L43.5327 134.368L43.0226 132H40.6V135ZM40.4 135V132H37.2995L37.4016 135.099L40.4 135ZM41 175L44 175.017L44 175.008V175H41ZM40.8 211.2L37.8 211.183L37.8 211.192V211.2H40.8ZM39.8 229.2L36.8467 228.673L36.1555 232.544L40.0716 232.188L39.8 229.2ZM55 228.6H58V225.6H55V228.6ZM55 244V247H58V244H55ZM9.4 244H6.4V247H9.4V244ZM9.4 230.8L9.28897 227.802L6.4 227.909V230.8H9.4ZM17.6 229.6L18.609 232.425L18.6964 232.394L18.7818 232.357L17.6 229.6ZM22 224.8L24.7414 226.018L24.7414 226.018L22 224.8ZM23.6 213.4L20.6004 213.353L20.6 213.377V213.4H23.6ZM24.8 136.8L21.8011 136.718L21.8006 136.735L21.8004 136.753L24.8 136.8ZM25.6 118.8L28.5795 119.151L28.9899 115.662L25.4801 115.802L25.6 118.8ZM10.6 119.4H7.6V122.522L10.7199 122.398L10.6 119.4ZM10.6 104V101H7.6V104H10.6ZM54.8 104L57.5948 102.91L56.8497 101H54.8V104ZM85 181.4L87.8 180.323L87.7974 180.316L87.7948 180.31L85 181.4ZM91.4 198.6L88.5789 199.62L88.5789 199.62L91.4 198.6ZM96.2 213L93.3111 213.809L93.9246 216H96.2V213ZM96.4 213V216H98.4311L99.1854 214.114L96.4 213ZM100.8 200.6L103.635 201.581L103.639 201.569L100.8 200.6ZM105.8 186.6L108.605 187.664L108.609 187.654L105.8 186.6ZM136.8 104V101H134.722L133.991 102.946L136.8 104ZM183 104H186V101H183V104ZM182.889 114.202C179.144 114.341 175.949 114.829 173.486 115.815L175.714 121.385C177.251 120.771 179.656 120.326 183.111 120.198L182.889 114.202ZM173.651 115.754C170.663 116.75 168.577 119.014 167.259 121.982L172.741 124.418C173.556 122.586 174.537 121.783 175.549 121.446L173.651 115.754ZM167.259 121.982C165.908 125.021 165.465 129.385 165.601 134.677L171.599 134.523C171.468 129.415 171.959 126.179 172.741 124.418L167.259 121.982ZM165.602 134.717L168.602 211.317L174.598 211.083L171.598 134.483L165.602 134.717ZM168.605 211.376C168.995 218.004 168.729 223.759 167.847 228.67L173.753 229.73C174.738 224.241 175.005 217.996 174.595 211.024L168.605 211.376ZM171.072 232.188C175.359 231.798 180.332 231.6 186 231.6V225.6C180.201 225.6 175.041 225.802 170.528 226.212L171.072 232.188ZM183 228.6V244H189V228.6H183ZM186 241H130.4V247H186V241ZM133.4 244V230.8H127.4V244H133.4ZM130.511 233.798C134.21 233.661 137.308 233.247 139.609 232.425L137.591 226.775C136.159 227.286 133.79 227.672 130.289 227.802L130.511 233.798ZM139.714 232.385C142.593 231.234 144.631 228.967 145.941 226.018L140.459 223.582C139.636 225.433 138.607 226.366 137.486 226.815L139.714 232.385ZM145.941 226.018C147.292 222.979 147.735 218.615 147.599 213.323L141.601 213.477C141.732 218.585 141.241 221.821 140.459 223.582L145.941 226.018ZM147.598 213.287L145.998 170.887L140.002 171.113L141.602 213.513L147.598 213.287ZM145.996 170.842L145.596 163.242L139.604 163.558L140.004 171.158L145.996 170.842ZM145.596 163.246C144.929 150.311 144.531 141.345 144.399 136.321L138.401 136.479C138.535 141.588 138.937 150.623 139.604 163.554L145.596 163.246ZM141.4 133.4H141.2V139.4H141.4V133.4ZM138.39 135.349L97.3902 244.949L103.01 247.051L144.01 137.451L138.39 135.349ZM100.2 243H81.6V249H100.2V243ZM84.3754 244.861L57.3754 179.061L51.8246 181.339L78.8246 247.139L84.3754 244.861ZM57.3574 179.018C55.4056 174.464 53.036 168.021 50.2461 159.651L44.554 161.549C47.364 169.979 49.7944 176.603 51.8426 181.382L57.3574 179.018ZM50.2594 159.692C47.6217 151.384 45.3795 142.942 43.5327 134.368L37.6673 135.632C39.5539 144.391 41.845 153.016 44.5406 161.508L50.2594 159.692ZM40.6 132H40.4V138H40.6V132ZM37.4016 135.099C37.8008 147.206 38 158.239 38 168.2H44C44 158.161 43.7992 147.061 43.3984 134.901L37.4016 135.099ZM38 168.2V175H44V168.2H38ZM38 174.983L37.8 211.183L43.8 211.217L44 175.017L38 174.983ZM37.8 211.2C37.8 219.446 37.4634 225.219 36.8467 228.673L42.7533 229.727C43.4699 225.714 43.8 219.487 43.8 211.2H37.8ZM40.0716 232.188C44.3594 231.798 49.3323 231.6 55 231.6V225.6C49.201 225.6 44.0406 225.802 39.5284 226.212L40.0716 232.188ZM52 228.6V244H58V228.6H52ZM55 241H9.4V247H55V241ZM12.4 244V230.8H6.4V244H12.4ZM9.51104 233.798C13.2104 233.661 16.3079 233.247 18.609 232.425L16.591 226.775C15.1587 227.286 12.7896 227.672 9.28897 227.802L9.51104 233.798ZM18.7818 232.357C21.529 231.18 23.4605 228.9 24.7414 226.018L19.2586 223.582C18.4061 225.5 17.4044 226.42 16.4182 226.843L18.7818 232.357ZM24.7414 226.018C26.0752 223.017 26.6 218.688 26.6 213.4H20.6C20.6 218.512 20.0581 221.783 19.2586 223.582L24.7414 226.018ZM26.5996 213.447L27.7996 136.847L21.8004 136.753L20.6004 213.353L26.5996 213.447ZM27.7989 136.882C28.0671 127.093 28.3323 121.252 28.5795 119.151L22.6205 118.449C22.3344 120.882 22.0663 127.041 21.8011 136.718L27.7989 136.882ZM25.4801 115.802L10.4801 116.402L10.7199 122.398L25.7199 121.798L25.4801 115.802ZM13.6 119.4V104H7.6V119.4H13.6ZM10.6 107H54.8V101H10.6V107ZM52.0052 105.09L82.2052 182.49L87.7948 180.31L57.5948 102.91L52.0052 105.09ZM82.2 182.477C84.1915 187.655 86.3178 193.369 88.5789 199.62L94.2211 197.58C91.9489 191.298 89.8085 185.545 87.8 180.323L82.2 182.477ZM88.5789 199.62C90.8388 205.868 92.4084 210.585 93.3111 213.809L99.0889 212.191C98.125 208.748 96.4945 203.865 94.2211 197.58L88.5789 199.62ZM96.2 216H96.4V210H96.2V216ZM99.1854 214.114C99.752 212.698 101.247 208.479 103.635 201.581L97.965 199.619C95.5527 206.588 94.1147 210.636 93.6146 211.886L99.1854 214.114ZM103.639 201.569C105.499 196.123 107.154 191.49 108.605 187.664L102.995 185.536C101.513 189.444 99.8346 194.144 97.961 199.631L103.639 201.569ZM108.609 187.654L139.609 105.054L133.991 102.946L102.991 185.546L108.609 187.654ZM136.8 107H183V101H136.8V107ZM180 104V117.2H186V104H180ZM299.736 164.8L300.365 167.733L302.736 167.225V164.8H299.736ZM289.936 171.4L287.568 169.558L287.563 169.565L287.558 169.571L289.936 171.4ZM282.736 185.4L285.55 186.439L285.553 186.432L285.555 186.425L282.736 185.4ZM258.736 250.4L255.922 249.361L255.919 249.369L255.916 249.378L258.736 250.4ZM248.136 275.4L250.783 276.812L250.783 276.812L248.136 275.4ZM237.336 288.8L235.562 286.381L235.542 286.395L235.523 286.41L237.336 288.8ZM210.336 289L212.221 286.666L212.21 286.657L210.336 289ZM208.136 270.2L205.886 268.215L205.825 268.285L205.768 268.358L208.136 270.2ZM215.536 266L216.073 268.952L216.169 268.934L216.264 268.91L215.536 266ZM224.936 268.6L227.057 266.479L227.057 266.479L224.936 268.6ZM227.536 278.4L224.626 277.672L224.536 278.031V278.4H227.536ZM227.536 278.6H224.536V281.6H227.536V278.6ZM235.736 269.8L238.395 271.19L238.395 271.19L235.736 269.8ZM243.936 248.8L246.813 249.649L247.158 248.481L246.591 247.404L243.936 248.8ZM213.536 191L216.191 189.604L216.175 189.573L216.158 189.543L213.536 191ZM206.736 176.8L209.571 175.819L209.571 175.819L206.736 176.8ZM204.136 166.6L207.098 166.126L206.675 163.481L204 163.603L204.136 166.6ZM195.336 167H192.336V170.139L195.472 169.997L195.336 167ZM195.336 153V150H192.336V153H195.336ZM243.336 153H246.336V150H243.336V153ZM243.336 164.8L243.627 167.786L246.336 167.522V164.8H243.336ZM237.136 179L239.858 177.739L239.839 177.699L239.819 177.658L237.136 179ZM255.936 219.6L253.214 220.861L254.019 222.6H255.936V219.6ZM256.136 219.6V222.6H258.288L258.978 220.562L256.136 219.6ZM260.536 206.6L263.378 207.562L263.382 207.549L260.536 206.6ZM268.336 183.4L265.519 182.367L265.515 182.379L265.511 182.391L268.336 183.4ZM272.336 173.2L275.093 174.382L275.093 174.382L272.336 173.2ZM276.336 166.4L278.626 168.338L279.336 167.499V166.4H276.336ZM276.336 166.2H279.336V162.97L276.114 163.208L276.336 166.2ZM265.536 167H262.536V170.23L265.758 169.992L265.536 167ZM265.536 153V150H262.536V153H265.536ZM299.736 153H302.736V150H299.736V153ZM299.107 161.867C294.555 162.842 290.713 165.514 287.568 169.558L292.304 173.242C294.759 170.086 297.45 168.358 300.365 167.733L299.107 161.867ZM287.558 169.571C284.643 173.361 282.114 178.332 279.917 184.375L285.555 186.425C287.625 180.735 289.896 176.372 292.314 173.229L287.558 169.571ZM279.922 184.361L255.922 249.361L261.55 251.439L285.55 186.439L279.922 184.361ZM255.916 249.378C252.07 259.986 248.592 268.169 245.489 273.988L250.783 276.812C254.079 270.631 257.669 262.147 261.556 251.422L255.916 249.378ZM245.489 273.988C242.426 279.73 239.09 283.793 235.562 286.381L239.11 291.219C243.582 287.94 247.445 283.07 250.783 276.812L245.489 273.988ZM235.523 286.41C232.268 288.879 228.137 290.2 222.936 290.2V296.2C229.201 296.2 234.671 294.587 239.149 291.19L235.523 286.41ZM222.936 290.2C218.611 290.2 215.096 288.988 212.221 286.666L208.451 291.334C212.509 294.612 217.395 296.2 222.936 296.2V290.2ZM212.21 286.657C209.613 284.58 208.336 281.921 208.336 278.4H202.336C202.336 283.679 204.392 288.087 208.462 291.343L212.21 286.657ZM208.336 278.4C208.336 275.994 209.051 273.91 210.504 272.042L205.768 268.358C203.488 271.29 202.336 274.672 202.336 278.4H208.336ZM210.385 272.185C211.946 270.416 213.813 269.363 216.073 268.952L214.999 263.048C211.393 263.704 208.326 265.451 205.886 268.215L210.385 272.185ZM216.264 268.91C216.43 268.869 216.931 268.8 217.936 268.8V262.8C216.808 262.8 215.709 262.864 214.808 263.09L216.264 268.91ZM217.936 268.8C219.994 268.8 221.547 269.454 222.815 270.721L227.057 266.479C224.591 264.013 221.478 262.8 217.936 262.8V268.8ZM222.815 270.721C224.027 271.934 224.736 273.59 224.736 276H230.736C230.736 272.277 229.578 268.999 227.057 266.479L222.815 270.721ZM224.736 276C224.736 277.005 224.667 277.506 224.626 277.672L230.446 279.128C230.671 278.227 230.736 277.128 230.736 276H224.736ZM224.536 278.4V278.6H230.536V278.4H224.536ZM227.536 281.6C229.983 281.6 232.01 280.131 233.581 278.445C235.211 276.696 236.806 274.228 238.395 271.19L233.077 268.41C231.599 271.238 230.294 273.171 229.191 274.355C228.029 275.602 227.489 275.6 227.536 275.6V281.6ZM238.395 271.19C241.573 265.11 244.373 257.92 246.813 249.649L241.059 247.951C238.699 255.947 236.033 262.756 233.077 268.41L238.395 271.19ZM246.591 247.404L216.191 189.604L210.881 192.396L241.281 250.196L246.591 247.404ZM216.158 189.543C212.85 183.588 210.685 179.036 209.571 175.819L203.901 177.781C205.187 181.497 207.555 186.412 210.913 192.457L216.158 189.543ZM209.571 175.819C208.423 172.503 207.602 169.273 207.098 166.126L201.174 167.074C201.737 170.594 202.649 174.164 203.901 177.781L209.571 175.819ZM204 163.603L195.2 164.003L195.472 169.997L204.272 169.597L204 163.603ZM198.336 167V153H192.336V167H198.336ZM195.336 156H243.336V150H195.336V156ZM240.336 153V164.8H246.336V153H240.336ZM243.045 161.814C239.987 162.112 237.231 162.968 235.207 164.746C233.077 166.615 232.136 169.168 232.136 172H238.136C238.136 170.566 238.561 169.785 239.165 169.254C239.874 168.632 241.218 168.021 243.627 167.786L243.045 161.814ZM232.136 172C232.136 174.638 233.005 177.446 234.453 180.342L239.819 177.658C238.6 175.221 238.136 173.362 238.136 172H232.136ZM234.414 180.261L253.214 220.861L258.658 218.339L239.858 177.739L234.414 180.261ZM255.936 222.6H256.136V216.6H255.936V222.6ZM258.978 220.562L263.378 207.562L257.694 205.638L253.294 218.638L258.978 220.562ZM263.382 207.549C267.923 193.927 270.508 186.237 271.161 184.409L265.511 182.391C264.83 184.297 262.216 192.073 257.69 205.651L263.382 207.549ZM271.153 184.433C272.607 180.465 273.921 177.118 275.093 174.382L269.579 172.018C268.351 174.882 266.998 178.335 265.519 182.367L271.153 184.433ZM275.093 174.382C276.213 171.768 277.405 169.781 278.626 168.338L274.046 164.462C272.334 166.485 270.859 169.032 269.579 172.018L275.093 174.382ZM279.336 166.4V166.2H273.336V166.4H279.336ZM276.114 163.208L265.314 164.008L265.758 169.992L276.558 169.192L276.114 163.208ZM268.536 167V153H262.536V167H268.536ZM265.536 156H299.736V150H265.536V156ZM296.736 153V164.8H302.736V153H296.736Z" fill="#0024DF"/>
<path fill-rule="evenodd" clip-rule="evenodd" d="M404.334 194.033L348.88 156.151V222.617C348.88 222.617 348.88 232.001 353.96 233.456C369.902 237.977 386.574 242.293 404.334 242.293C422.509 242.293 439.896 239.022 455.91 232.994C459.788 232.001 459.788 223.558 459.788 223.558V156.151L404.334 194.033Z" fill="#0024DF"/>
<path fill-rule="evenodd" clip-rule="evenodd" d="M327.489 136.432H323.266C319.65 154.233 316.985 210.835 316.985 214.352C316.985 214.671 317.046 215.001 317.099 215.309H333.664C333.723 214.995 333.755 214.675 333.761 214.352C333.752 210.847 331.078 154.245 327.489 136.432Z" fill="#0024DF"/>
<path fill-rule="evenodd" clip-rule="evenodd" d="M404.8 61.707L311.6 116.123L327.095 127.037L391.81 113.293C392.882 107.514 397.961 103.013 404.439 103.013C407.915 103.013 411.248 104.308 413.706 106.613C416.164 108.918 417.545 112.044 417.545 115.304C417.545 118.563 416.164 121.689 413.706 123.994C411.248 126.299 407.915 127.594 404.439 127.594C402.718 127.578 401.019 127.229 399.449 126.567C397.879 125.905 396.472 124.945 395.317 123.748L339.257 135.645L404.8 177.946L498 116.123L404.8 61.707V61.707Z" fill="#0024DF"/>
<path d="M564.4 100.8C570.133 100.8 576.133 101.667 582.4 103.4C588.667 105 593.867 107.333 598 110.4H598.2L597.4 102.2H613V148.8H599.8C598.067 137.867 594.2 129.533 588.2 123.8C582.333 118.067 574.8 115.2 565.6 115.2C559.6 115.2 554.4 116.867 550 120.2C545.733 123.4 543.6 127.467 543.6 132.4C543.6 138.267 546.067 143.2 551 147.2C555.933 151.2 564.267 155.6 576 160.4C589.467 165.733 600.4 171.933 608.8 179C617.333 185.933 621.6 195.2 621.6 206.8C621.6 214.667 619.467 221.667 615.2 227.8C610.933 233.933 604.933 238.733 597.2 242.2C589.467 245.533 580.533 247.2 570.4 247.2C564.933 247.2 559.067 246.333 552.8 244.6C546.667 242.867 541 240.467 535.8 237.4H535.6L536.2 245.8H520.8V199H534C535.733 209.933 539.933 218.333 546.6 224.2C553.267 229.933 561.4 232.8 571 232.8C577.933 232.8 583.667 231 588.2 227.4C592.733 223.667 595 219.2 595 214C595 209.733 593.467 206.067 590.4 203C587.467 199.933 584.133 197.533 580.4 195.8C576.8 194.067 571 191.6 563 188.4C548.333 182.533 537.067 175.867 529.2 168.4C521.467 160.933 517.6 151.133 517.6 139C517.6 132.867 519.133 126.933 522.2 121.2C525.267 115.333 530.267 110.467 537.2 106.6C544.267 102.733 553.333 100.8 564.4 100.8ZM696.731 153V167L672.331 167.6L672.131 212.4C672.131 224.133 675.998 230 683.731 230C689.865 230 695.731 226.333 701.331 219L710.531 227.2C704.531 235.6 698.465 241 692.331 243.4C686.331 245.8 680.465 247 674.731 247C654.731 247 644.731 235.333 644.731 212L645.131 168.2H631.931V153C637.931 153 643.398 150.6 648.331 145.8C653.265 141 656.598 135.867 658.331 130.4H672.531L672.331 153H696.731ZM811.019 214.8C811.019 220.533 810.752 225.867 810.219 230.8C814.219 230.4 818.352 230.2 822.619 230.2V244H786.019L785.019 234.6H784.819C780.019 238.6 775.419 241.667 771.019 243.8C766.619 245.933 761.619 247 756.019 247C744.552 247 736.352 243.867 731.419 237.6C726.485 231.2 724.019 220.933 724.019 206.8V185.8C724.019 180.6 724.219 175.333 724.619 170L711.219 170.6V156.8C719.352 156.8 725.885 156.267 730.819 155.2C735.885 154 739.219 152.667 740.819 151.2H751.419V207C751.419 215 752.485 220.867 754.619 224.6C756.885 228.333 760.419 230.2 765.219 230.2C768.285 230.2 771.552 229.4 775.019 227.8C778.485 226.067 781.352 223.933 783.619 221.4V185.8C783.619 180.067 783.885 174.8 784.419 170L770.819 170.6V156.8C778.819 156.8 785.285 156.267 790.219 155.2C795.285 154 798.685 152.667 800.419 151.2H811.019V214.8ZM925.759 214.8C925.759 220.533 925.493 225.867 924.959 230.8C929.226 230.4 933.426 230.2 937.559 230.2V244H900.959L899.959 235.6H899.759C892.159 243.2 883.093 247 872.559 247C864.959 247 858.226 245.133 852.359 241.4C846.493 237.533 841.893 232.133 838.559 225.2C835.359 218.267 833.759 210.2 833.759 201C833.759 191.267 835.759 182.533 839.759 174.8C843.759 167.067 849.359 161.067 856.559 156.8C863.759 152.4 872.093 150.2 881.559 150.2C886.493 150.2 892.159 151.267 898.559 153.4V141.4C898.559 135.667 898.826 130.333 899.359 125.4C895.226 125.8 890.693 126 885.759 126V112.2C893.759 112.2 900.293 111.667 905.359 110.6C910.426 109.4 913.759 108.133 915.359 106.8H925.759V214.8ZM884.959 163.6C876.693 163.733 870.759 167.067 867.159 173.6C863.693 180.133 861.959 188.333 861.959 198.2C861.959 206.867 863.693 214.4 867.159 220.8C870.626 227.2 875.759 230.4 882.559 230.4C885.759 230.4 888.759 229.6 891.559 228C894.493 226.4 896.826 224.267 898.559 221.6V167C897.226 166.067 895.293 165.267 892.759 164.6C890.226 163.933 887.626 163.6 884.959 163.6ZM1047.99 164.8C1044.26 165.6 1040.99 167.8 1038.19 171.4C1035.53 174.867 1033.13 179.533 1030.99 185.4L1006.99 250.4C1003.13 261.067 999.594 269.4 996.394 275.4C993.194 281.4 989.594 285.867 985.594 288.8C981.727 291.733 976.927 293.2 971.194 293.2C966.26 293.2 962.06 291.8 958.594 289C955.26 286.333 953.594 282.8 953.594 278.4C953.594 275.333 954.527 272.6 956.394 270.2C958.394 267.933 960.86 266.533 963.794 266C964.327 265.867 965.127 265.8 966.194 265.8C968.994 265.8 971.327 266.733 973.194 268.6C975.06 270.467 975.994 272.933 975.994 276C975.994 277.067 975.927 277.867 975.794 278.4V278.6C978.194 278.6 980.927 275.667 983.994 269.8C987.06 263.933 989.794 256.933 992.194 248.8L961.794 191C958.46 185 956.194 180.267 954.994 176.8C953.794 173.333 952.927 169.933 952.394 166.6L943.594 167V153H991.594V164.8C986.127 165.333 983.394 167.733 983.394 172C983.394 174 984.06 176.333 985.394 179L1004.19 219.6H1004.39L1008.79 206.6C1013.33 193 1015.93 185.267 1016.59 183.4C1018.06 179.4 1019.39 176 1020.59 173.2C1021.79 170.4 1023.13 168.133 1024.59 166.4V166.2L1013.79 167V153H1047.99V164.8Z" fill="#0024DF"/>
<path d="M582.4 103.4L581.6 106.291L581.629 106.299L581.658 106.307L582.4 103.4ZM598 110.4L596.212 112.809L597.009 113.4H598V110.4ZM598.2 110.4V113.4H601.507L601.186 110.109L598.2 110.4ZM597.4 102.2V99.2H594.093L594.414 102.491L597.4 102.2ZM613 102.2H616V99.2H613V102.2ZM613 148.8V151.8H616V148.8H613ZM599.8 148.8L596.837 149.27L597.238 151.8H599.8V148.8ZM588.2 123.8L586.103 125.946L586.115 125.957L586.127 125.969L588.2 123.8ZM550 120.2L551.8 122.6L551.806 122.596L551.812 122.591L550 120.2ZM551 147.2L552.889 144.87L552.889 144.87L551 147.2ZM576 160.4L574.864 163.177L574.88 163.183L574.895 163.189L576 160.4ZM608.8 179L606.869 181.296L606.888 181.312L606.908 181.328L608.8 179ZM615.2 227.8L617.663 229.513L617.663 229.513L615.2 227.8ZM597.2 242.2L598.387 244.955L598.407 244.946L598.427 244.938L597.2 242.2ZM552.8 244.6L551.984 247.487L551.992 247.489L552 247.491L552.8 244.6ZM535.8 237.4L537.324 234.816L536.619 234.4H535.8V237.4ZM535.6 237.4V234.4H532.378L532.608 237.614L535.6 237.4ZM536.2 245.8V248.8H539.422L539.192 245.586L536.2 245.8ZM520.8 245.8H517.8V248.8H520.8V245.8ZM520.8 199V196H517.8V199H520.8ZM534 199L536.963 198.53L536.562 196H534V199ZM546.6 224.2L544.618 226.452L544.631 226.463L544.644 226.475L546.6 224.2ZM588.2 227.4L590.066 229.749L590.087 229.733L590.107 229.716L588.2 227.4ZM590.4 203L588.232 205.074L588.255 205.098L588.279 205.121L590.4 203ZM580.4 195.8L579.099 198.503L579.118 198.512L579.137 198.521L580.4 195.8ZM563 188.4L564.114 185.615L564.114 185.615L563 188.4ZM529.2 168.4L527.116 170.558L527.125 170.567L527.135 170.576L529.2 168.4ZM522.2 121.2L524.845 122.615L524.852 122.602L524.859 122.59L522.2 121.2ZM537.2 106.6L535.76 103.968L535.749 103.974L535.739 103.98L537.2 106.6ZM564.4 103.8C569.83 103.8 575.56 104.621 581.6 106.291L583.2 100.509C576.707 98.7126 570.437 97.8 564.4 97.8V103.8ZM581.658 106.307C587.64 107.834 592.461 110.026 596.212 112.809L599.788 107.991C595.272 104.641 589.693 102.166 583.142 100.493L581.658 106.307ZM598 113.4H598.2V107.4H598V113.4ZM601.186 110.109L600.386 101.909L594.414 102.491L595.214 110.691L601.186 110.109ZM597.4 105.2H613V99.2H597.4V105.2ZM610 102.2V148.8H616V102.2H610ZM613 145.8H599.8V151.8H613V145.8ZM602.763 148.33C600.961 136.964 596.884 127.949 590.273 121.631L586.127 125.969C591.516 131.118 595.172 138.77 596.837 149.27L602.763 148.33ZM590.297 121.654C583.8 115.305 575.48 112.2 565.6 112.2V118.2C574.12 118.2 580.867 120.828 586.103 125.946L590.297 121.654ZM565.6 112.2C559.006 112.2 553.156 114.045 548.188 117.809L551.812 122.591C555.644 119.688 560.194 118.2 565.6 118.2V112.2ZM548.2 117.8C543.249 121.513 540.6 126.437 540.6 132.4H546.6C546.6 128.496 548.218 125.287 551.8 122.6L548.2 117.8ZM540.6 132.4C540.6 139.253 543.541 145.014 549.111 149.53L552.889 144.87C548.592 141.386 546.6 137.28 546.6 132.4H540.6ZM549.111 149.53C554.4 153.819 563.073 158.353 574.864 163.177L577.136 157.623C565.46 152.847 557.466 148.581 552.889 144.87L549.111 149.53ZM574.895 163.189C588.152 168.439 598.781 174.491 606.869 181.296L610.731 176.704C602.019 169.375 590.781 163.027 577.105 157.611L574.895 163.189ZM606.908 181.328C614.697 187.657 618.6 196.046 618.6 206.8H624.6C624.6 194.354 619.969 184.21 610.692 176.672L606.908 181.328ZM618.6 206.8C618.6 214.088 616.635 220.484 612.737 226.087L617.663 229.513C622.298 222.85 624.6 215.245 624.6 206.8H618.6ZM612.737 226.087C608.822 231.715 603.277 236.188 595.973 239.462L598.427 244.938C606.589 241.279 613.045 236.151 617.663 229.513L612.737 226.087ZM596.013 239.445C588.722 242.587 580.206 244.2 570.4 244.2V250.2C580.86 250.2 590.211 248.479 598.387 244.955L596.013 239.445ZM570.4 244.2C565.249 244.2 559.654 243.383 553.6 241.709L552 247.491C558.48 249.284 564.618 250.2 570.4 250.2V244.2ZM553.616 241.713C547.717 240.046 542.29 237.745 537.324 234.816L534.276 239.984C539.71 243.189 545.617 245.687 551.984 247.487L553.616 241.713ZM535.8 234.4H535.6V240.4H535.8V234.4ZM532.608 237.614L533.208 246.014L539.192 245.586L538.592 237.186L532.608 237.614ZM536.2 242.8H520.8V248.8H536.2V242.8ZM523.8 245.8V199H517.8V245.8H523.8ZM520.8 202H534V196H520.8V202ZM531.037 199.47C532.852 210.918 537.308 220.019 544.618 226.452L548.582 221.948C542.559 216.648 538.615 208.948 536.963 198.53L531.037 199.47ZM544.644 226.475C551.906 232.72 560.753 235.8 571 235.8V229.8C562.047 229.8 554.627 227.146 548.556 221.925L544.644 226.475ZM571 235.8C578.472 235.8 584.902 233.85 590.066 229.749L586.334 225.051C582.431 228.15 577.395 229.8 571 229.8V235.8ZM590.107 229.716C595.232 225.496 598 220.219 598 214H592C592 218.181 590.235 221.838 586.293 225.084L590.107 229.716ZM598 214C598 208.923 596.14 204.498 592.521 200.879L588.279 205.121C590.793 207.636 592 210.544 592 214H598ZM592.568 200.926C589.384 197.598 585.746 194.975 581.663 193.079L579.137 198.521C582.52 200.092 585.549 202.269 588.232 205.074L592.568 200.926ZM581.701 193.097C578.003 191.316 572.123 188.818 564.114 185.615L561.886 191.185C569.877 194.382 575.597 196.817 579.099 198.503L581.701 193.097ZM564.114 185.615C549.653 179.83 538.761 173.339 531.265 166.224L527.135 170.576C535.372 178.395 547.014 185.236 561.886 191.185L564.114 185.615ZM531.284 166.242C524.214 159.416 520.6 150.434 520.6 139H514.6C514.6 151.832 518.72 162.451 527.116 170.558L531.284 166.242ZM520.6 139C520.6 133.39 521.997 127.94 524.845 122.615L519.555 119.785C516.27 125.927 514.6 132.343 514.6 139H520.6ZM524.859 122.59C527.605 117.337 532.135 112.86 538.661 109.22L535.739 103.98C528.398 108.074 522.929 113.33 519.541 119.81L524.859 122.59ZM538.64 109.232C545.131 105.68 553.657 103.8 564.4 103.8V97.8C553.009 97.8 543.402 99.7865 535.76 103.968L538.64 109.232ZM696.731 153H699.731V150H696.731V153ZM696.731 167L696.805 169.999L699.731 169.927V167H696.731ZM672.331 167.6L672.258 164.601L669.344 164.673L669.331 167.587L672.331 167.6ZM672.131 212.4L669.131 212.387V212.4H672.131ZM701.331 219L703.327 216.76L700.911 214.607L698.947 217.179L701.331 219ZM710.531 227.2L712.972 228.944L714.538 226.752L712.527 224.96L710.531 227.2ZM692.331 243.4L691.238 240.606L691.228 240.61L691.217 240.615L692.331 243.4ZM644.731 212L641.731 211.973L641.731 211.986V212H644.731ZM645.131 168.2L648.131 168.227L648.159 165.2H645.131V168.2ZM631.931 168.2H628.931V171.2H631.931V168.2ZM631.931 153V150H628.931V153H631.931ZM648.331 145.8L646.239 143.65L646.239 143.65L648.331 145.8ZM658.331 130.4V127.4H656.135L655.472 129.493L658.331 130.4ZM672.531 130.4L675.531 130.427L675.558 127.4H672.531V130.4ZM672.331 153L669.331 152.973L669.305 156H672.331V153ZM693.731 153V167H699.731V153H693.731ZM696.658 164.001L672.258 164.601L672.405 170.599L696.805 169.999L696.658 164.001ZM669.331 167.587L669.131 212.387L675.131 212.413L675.331 167.613L669.331 167.587ZM669.131 212.4C669.131 218.501 670.119 223.599 672.526 227.251C675.078 231.122 678.976 233 683.731 233V227C680.753 227 678.851 225.945 677.536 223.949C676.077 221.735 675.131 218.032 675.131 212.4H669.131ZM683.731 233C691.198 233 697.843 228.51 703.716 220.821L698.947 217.179C693.619 224.156 688.532 227 683.731 227V233ZM699.335 221.24L708.535 229.44L712.527 224.96L703.327 216.76L699.335 221.24ZM708.09 225.456C702.252 233.63 696.603 238.507 691.238 240.606L693.424 246.194C700.326 243.493 706.811 237.57 712.972 228.944L708.09 225.456ZM691.217 240.615C685.527 242.891 680.037 244 674.731 244V250C680.892 250 687.136 248.709 693.445 246.185L691.217 240.615ZM674.731 244C665.325 244 658.778 241.278 654.509 236.298C650.164 231.229 647.731 223.308 647.731 212H641.731C641.731 224.026 644.298 233.605 649.953 240.202C655.685 246.889 664.138 250 674.731 250V244ZM647.731 212.027L648.131 168.227L642.131 168.173L641.731 211.973L647.731 212.027ZM645.131 165.2H631.931V171.2H645.131V165.2ZM634.931 168.2V153H628.931V168.2H634.931ZM631.931 156C638.829 156 645.019 153.208 650.423 147.95L646.239 143.65C641.777 147.992 637.034 150 631.931 150V156ZM650.423 147.95C655.641 142.874 659.281 137.331 661.191 131.307L655.472 129.493C653.915 134.403 650.889 139.126 646.239 143.65L650.423 147.95ZM658.331 133.4H672.531V127.4H658.331V133.4ZM669.531 130.373L669.331 152.973L675.331 153.027L675.531 130.427L669.531 130.373ZM672.331 156H696.731V150H672.331V156ZM810.219 230.8L807.236 230.478L806.839 234.153L810.517 233.785L810.219 230.8ZM822.619 230.2H825.619V227.2H822.619V230.2ZM822.619 244V247H825.619V244H822.619ZM786.019 244L783.036 244.317L783.321 247H786.019V244ZM785.019 234.6L788.002 234.283L787.717 231.6H785.019V234.6ZM784.819 234.6V231.6H783.733L782.898 232.295L784.819 234.6ZM771.019 243.8L772.328 246.499L771.019 243.8ZM731.419 237.6L729.043 239.432L729.052 239.444L729.062 239.456L731.419 237.6ZM724.619 170L727.61 170.224L727.863 166.852L724.485 167.003L724.619 170ZM711.219 170.6H708.219V173.737L711.353 173.597L711.219 170.6ZM711.219 156.8V153.8H708.219V156.8H711.219ZM730.819 155.2L731.453 158.132L731.482 158.126L731.51 158.119L730.819 155.2ZM740.819 151.2V148.2H739.652L738.792 148.989L740.819 151.2ZM751.419 151.2H754.419V148.2H751.419V151.2ZM754.619 224.6L752.014 226.088L752.034 226.123L752.054 226.157L754.619 224.6ZM775.019 227.8L776.276 230.524L776.318 230.504L776.36 230.483L775.019 227.8ZM783.619 221.4L785.854 223.4L786.619 222.546V221.4H783.619ZM784.419 170L787.4 170.331L787.787 166.848L784.287 167.003L784.419 170ZM770.819 170.6H767.819V173.735L770.951 173.597L770.819 170.6ZM770.819 156.8V153.8H767.819V156.8H770.819ZM790.219 155.2L790.853 158.132L790.882 158.126L790.91 158.119L790.219 155.2ZM800.419 151.2V148.2H799.32L798.481 148.91L800.419 151.2ZM811.019 151.2H814.019V148.2H811.019V151.2ZM808.019 214.8C808.019 220.442 807.756 225.666 807.236 230.478L813.201 231.122C813.748 226.067 814.019 220.625 814.019 214.8H808.019ZM810.517 233.785C814.412 233.396 818.446 233.2 822.619 233.2V227.2C818.258 227.2 814.025 227.404 809.92 227.815L810.517 233.785ZM819.619 230.2V244H825.619V230.2H819.619ZM822.619 241H786.019V247H822.619V241ZM789.002 243.683L788.002 234.283L782.036 234.917L783.036 244.317L789.002 243.683ZM785.019 231.6H784.819V237.6H785.019V231.6ZM782.898 232.295C778.236 236.18 773.84 239.098 769.71 241.101L772.328 246.499C776.998 244.235 781.801 241.02 786.739 236.905L782.898 232.295ZM769.71 241.101C765.773 243.009 761.231 244 756.019 244V250C762.006 250 767.464 248.857 772.328 246.499L769.71 241.101ZM756.019 244C745.051 244 737.923 241.012 733.776 235.744L729.062 239.456C734.781 246.721 744.053 250 756.019 250V244ZM733.795 235.768C729.472 230.161 727.019 220.714 727.019 206.8H721.019C721.019 221.152 723.499 232.239 729.043 239.432L733.795 235.768ZM727.019 206.8V185.8H721.019V206.8H727.019ZM727.019 185.8C727.019 180.677 727.216 175.485 727.61 170.224L721.627 169.776C721.222 175.182 721.019 180.523 721.019 185.8H727.019ZM724.485 167.003L711.085 167.603L711.353 173.597L724.753 172.997L724.485 167.003ZM714.219 170.6V156.8H708.219V170.6H714.219ZM711.219 159.8C719.453 159.8 726.224 159.263 731.453 158.132L730.185 152.268C725.547 153.271 719.251 153.8 711.219 153.8V159.8ZM731.51 158.119C734.129 157.499 736.383 156.825 738.233 156.085C740.045 155.36 741.661 154.498 742.846 153.411L738.792 148.989C738.377 149.369 737.525 149.906 736.005 150.515C734.521 151.108 732.575 151.701 730.127 152.281L731.51 158.119ZM740.819 154.2H751.419V148.2H740.819V154.2ZM748.419 151.2V207H754.419V151.2H748.419ZM748.419 207C748.419 215.143 749.483 221.659 752.014 226.088L757.223 223.112C755.488 220.075 754.419 214.857 754.419 207H748.419ZM752.054 226.157C754.927 230.888 759.495 233.2 765.219 233.2V227.2C761.342 227.2 758.844 225.779 757.183 223.043L752.054 226.157ZM765.219 233.2C768.812 233.2 772.509 232.262 776.276 230.524L773.762 225.076C770.595 226.538 767.759 227.2 765.219 227.2V233.2ZM776.36 230.483C780.118 228.604 783.303 226.252 785.854 223.4L781.383 219.4C779.401 221.614 776.852 223.529 773.677 225.117L776.36 230.483ZM786.619 221.4V185.8H780.619V221.4H786.619ZM786.619 185.8C786.619 180.158 786.881 175.003 787.4 170.331L781.437 169.669C780.89 174.597 780.619 179.976 780.619 185.8H786.619ZM784.287 167.003L770.687 167.603L770.951 173.597L784.551 172.997L784.287 167.003ZM773.819 170.6V156.8H767.819V170.6H773.819ZM770.819 159.8C778.924 159.8 785.627 159.262 790.853 158.132L789.585 152.268C784.944 153.271 778.714 153.8 770.819 153.8V159.8ZM790.91 158.119C795.988 156.917 800.027 155.461 802.357 153.49L798.481 148.91C797.344 149.872 794.583 151.083 789.527 152.281L790.91 158.119ZM800.419 154.2H811.019V148.2H800.419V154.2ZM808.019 151.2V214.8H814.019V151.2H808.019ZM924.959 230.8L921.977 230.478L921.582 234.13L925.239 233.787L924.959 230.8ZM937.559 230.2H940.559V227.2H937.559V230.2ZM937.559 244V247H940.559V244H937.559ZM900.959 244L897.98 244.355L898.295 247H900.959V244ZM899.959 235.6L902.938 235.245L902.623 232.6H899.959V235.6ZM899.759 235.6V232.6H898.517L897.638 233.479L899.759 235.6ZM852.359 241.4L850.708 243.905L850.728 243.918L850.749 243.931L852.359 241.4ZM838.559 225.2L835.835 226.457L835.845 226.479L835.856 226.5L838.559 225.2ZM839.759 174.8L837.095 173.422L837.095 173.422L839.759 174.8ZM856.559 156.8L858.089 159.381L858.106 159.37L858.124 159.36L856.559 156.8ZM898.559 153.4L897.611 156.246L901.559 157.562V153.4H898.559ZM899.359 125.4L902.342 125.722L902.738 122.059L899.07 122.414L899.359 125.4ZM885.759 126H882.759V129H885.759V126ZM885.759 112.2V109.2H882.759V112.2H885.759ZM905.359 110.6L905.977 113.536L906.014 113.528L906.051 113.519L905.359 110.6ZM915.359 106.8V103.8H914.273L913.439 104.495L915.359 106.8ZM925.759 106.8H928.759V103.8H925.759V106.8ZM884.959 163.6V160.6H884.935L884.911 160.6L884.959 163.6ZM867.159 173.6L864.532 172.152L864.52 172.173L864.509 172.194L867.159 173.6ZM867.159 220.8L869.797 219.371L869.797 219.371L867.159 220.8ZM891.559 228L890.123 225.366L890.097 225.381L890.071 225.395L891.559 228ZM898.559 221.6L901.075 223.235L901.559 222.489V221.6H898.559ZM898.559 167H901.559V165.438L900.28 164.542L898.559 167ZM922.759 214.8C922.759 220.442 922.497 225.666 921.977 230.478L927.942 231.122C928.489 226.067 928.759 220.625 928.759 214.8H922.759ZM925.239 233.787C929.416 233.395 933.523 233.2 937.559 233.2V227.2C933.329 227.2 929.036 227.405 924.679 227.813L925.239 233.787ZM934.559 230.2V244H940.559V230.2H934.559ZM937.559 241H900.959V247H937.559V241ZM903.938 243.645L902.938 235.245L896.98 235.955L897.98 244.355L903.938 243.645ZM899.959 232.6H899.759V238.6H899.959V232.6ZM897.638 233.479C890.588 240.529 882.279 244 872.559 244V250C883.906 250 893.731 245.871 901.881 237.721L897.638 233.479ZM872.559 244C865.475 244 859.311 242.268 853.97 238.869L850.749 243.931C857.141 247.999 864.444 250 872.559 250V244ZM854.01 238.895C848.64 235.355 844.384 230.392 841.263 223.9L835.856 226.5C839.401 233.875 844.346 239.711 850.708 243.905L854.01 238.895ZM841.283 223.943C838.299 217.476 836.759 209.853 836.759 201H830.759C830.759 210.547 832.42 219.057 835.835 226.457L841.283 223.943ZM836.759 201C836.759 191.689 838.669 183.437 842.424 176.178L837.095 173.422C832.849 181.629 830.759 190.844 830.759 201H836.759ZM842.424 176.178C846.177 168.923 851.392 163.349 858.089 159.381L855.03 154.219C847.326 158.784 841.342 165.21 837.095 173.422L842.424 176.178ZM858.124 159.36C864.797 155.282 872.576 153.2 881.559 153.2V147.2C871.61 147.2 862.722 149.518 854.995 154.24L858.124 159.36ZM881.559 153.2C886.076 153.2 891.412 154.18 897.611 156.246L899.508 150.554C892.906 148.353 886.909 147.2 881.559 147.2V153.2ZM901.559 153.4V141.4H895.559V153.4H901.559ZM901.559 141.4C901.559 135.758 901.822 130.534 902.342 125.722L896.377 125.078C895.83 130.133 895.559 135.575 895.559 141.4H901.559ZM899.07 122.414C895.049 122.803 890.614 123 885.759 123V129C890.772 129 895.403 128.797 899.648 128.386L899.07 122.414ZM888.759 126V112.2H882.759V126H888.759ZM885.759 115.2C893.868 115.2 900.629 114.662 905.977 113.536L904.741 107.664C899.956 108.672 893.651 109.2 885.759 109.2V115.2ZM906.051 113.519C908.659 112.901 910.895 112.25 912.725 111.554C914.514 110.874 916.106 110.083 917.28 109.105L913.439 104.495C913.013 104.85 912.138 105.359 910.594 105.946C909.091 106.517 907.126 107.099 904.668 107.681L906.051 113.519ZM915.359 109.8H925.759V103.8H915.359V109.8ZM922.759 106.8V214.8H928.759V106.8H922.759ZM884.911 160.6C875.71 160.749 868.716 164.559 864.532 172.152L869.787 175.048C872.803 169.574 877.676 166.718 885.008 166.6L884.911 160.6ZM864.509 172.194C860.749 179.281 858.959 188 858.959 198.2H864.959C864.959 188.666 866.636 180.986 869.809 175.006L864.509 172.194ZM858.959 198.2C858.959 207.271 860.776 215.314 864.522 222.229L869.797 219.371C866.61 213.486 864.959 206.463 864.959 198.2H858.959ZM864.522 222.229C866.452 225.793 868.933 228.62 872.022 230.546C875.122 232.478 878.67 233.4 882.559 233.4V227.4C879.649 227.4 877.23 226.722 875.196 225.454C873.153 224.18 871.333 222.207 869.797 219.371L864.522 222.229ZM882.559 233.4C886.286 233.4 889.798 232.462 893.048 230.605L890.071 225.395C887.721 226.738 885.233 227.4 882.559 227.4V233.4ZM892.996 230.634C896.343 228.808 899.056 226.34 901.075 223.235L896.044 219.965C894.596 222.193 892.642 223.992 890.123 225.366L892.996 230.634ZM901.559 221.6V167H895.559V221.6H901.559ZM900.28 164.542C898.534 163.32 896.216 162.407 893.523 161.699L891.996 167.501C894.369 168.126 895.918 168.813 896.839 169.458L900.28 164.542ZM893.523 161.699C890.736 160.965 887.879 160.6 884.959 160.6V166.6C887.373 166.6 889.716 166.901 891.996 167.501L893.523 161.699ZM1047.99 164.8L1048.62 167.733L1050.99 167.225V164.8H1047.99ZM1038.19 171.4L1035.83 169.558L1035.82 169.565L1035.82 169.571L1038.19 171.4ZM1030.99 185.4L1033.81 186.439L1033.81 186.432L1033.81 186.425L1030.99 185.4ZM1006.99 250.4L1004.18 249.361L1004.18 249.369L1004.17 249.378L1006.99 250.4ZM996.394 275.4L999.041 276.812L999.041 276.812L996.394 275.4ZM985.594 288.8L983.82 286.381L983.8 286.395L983.781 286.41L985.594 288.8ZM958.594 289L960.479 286.666L960.468 286.657L958.594 289ZM956.394 270.2L954.144 268.215L954.083 268.285L954.026 268.358L956.394 270.2ZM963.794 266L964.33 268.952L964.427 268.934L964.521 268.91L963.794 266ZM973.194 268.6L975.315 266.479L975.315 266.479L973.194 268.6ZM975.794 278.4L972.883 277.672L972.794 278.031V278.4H975.794ZM975.794 278.6H972.794V281.6H975.794V278.6ZM983.994 269.8L986.652 271.19L986.652 271.19L983.994 269.8ZM992.194 248.8L995.071 249.649L995.416 248.481L994.849 247.404L992.194 248.8ZM961.794 191L964.449 189.604L964.433 189.573L964.416 189.543L961.794 191ZM954.994 176.8L957.829 175.819L957.829 175.819L954.994 176.8ZM952.394 166.6L955.356 166.126L954.933 163.481L952.258 163.603L952.394 166.6ZM943.594 167H940.594V170.139L943.73 169.997L943.594 167ZM943.594 153V150H940.594V153H943.594ZM991.594 153H994.594V150H991.594V153ZM991.594 164.8L991.885 167.786L994.594 167.522V164.8H991.594ZM985.394 179L988.116 177.739L988.097 177.699L988.077 177.658L985.394 179ZM1004.19 219.6L1001.47 220.861L1002.28 222.6H1004.19V219.6ZM1004.39 219.6V222.6H1006.55L1007.24 220.562L1004.39 219.6ZM1008.79 206.6L1011.64 207.562L1011.64 207.549L1008.79 206.6ZM1016.59 183.4L1013.78 182.367L1013.77 182.379L1013.77 182.391L1016.59 183.4ZM1020.59 173.2L1023.35 174.382L1023.35 174.382L1020.59 173.2ZM1024.59 166.4L1026.88 168.338L1027.59 167.499V166.4H1024.59ZM1024.59 166.2H1027.59V162.97L1024.37 163.208L1024.59 166.2ZM1013.79 167H1010.79V170.23L1014.02 169.992L1013.79 167ZM1013.79 153V150H1010.79V153H1013.79ZM1047.99 153H1050.99V150H1047.99V153ZM1047.37 161.867C1042.81 162.842 1038.97 165.514 1035.83 169.558L1040.56 173.242C1043.02 170.086 1045.71 168.358 1048.62 167.733L1047.37 161.867ZM1035.82 169.571C1032.9 173.361 1030.37 178.332 1028.17 184.375L1033.81 186.425C1035.88 180.735 1038.15 176.372 1040.57 173.229L1035.82 169.571ZM1028.18 184.361L1004.18 249.361L1009.81 251.439L1033.81 186.439L1028.18 184.361ZM1004.17 249.378C1000.33 259.986 996.85 268.169 993.747 273.988L999.041 276.812C1002.34 270.631 1005.93 262.147 1009.81 251.422L1004.17 249.378ZM993.747 273.988C990.684 279.73 987.348 283.793 983.82 286.381L987.368 291.219C991.839 287.94 995.703 283.07 999.041 276.812L993.747 273.988ZM983.781 286.41C980.526 288.879 976.395 290.2 971.194 290.2V296.2C977.459 296.2 982.929 294.587 987.407 291.19L983.781 286.41ZM971.194 290.2C966.868 290.2 963.354 288.988 960.479 286.666L956.709 291.334C960.767 294.612 965.653 296.2 971.194 296.2V290.2ZM960.468 286.657C957.871 284.58 956.594 281.921 956.594 278.4H950.594C950.594 283.679 952.65 288.087 956.72 291.343L960.468 286.657ZM956.594 278.4C956.594 275.994 957.309 273.91 958.762 272.042L954.026 268.358C951.746 271.29 950.594 274.672 950.594 278.4H956.594ZM958.643 272.185C960.204 270.416 962.07 269.363 964.33 268.952L963.257 263.048C959.65 263.704 956.584 265.451 954.144 268.215L958.643 272.185ZM964.521 268.91C964.688 268.869 965.188 268.8 966.194 268.8V262.8C965.066 262.8 963.967 262.864 963.066 263.09L964.521 268.91ZM966.194 268.8C968.252 268.8 969.805 269.454 971.072 270.721L975.315 266.479C972.849 264.013 969.736 262.8 966.194 262.8V268.8ZM971.072 270.721C972.285 271.934 972.994 273.59 972.994 276H978.994C978.994 272.277 977.836 268.999 975.315 266.479L971.072 270.721ZM972.994 276C972.994 277.005 972.925 277.506 972.883 277.672L978.704 279.128C978.929 278.227 978.994 277.128 978.994 276H972.994ZM972.794 278.4V278.6H978.794V278.4H972.794ZM975.794 281.6C978.241 281.6 980.268 280.131 981.839 278.445C983.469 276.696 985.064 274.228 986.652 271.19L981.335 268.41C979.857 271.238 978.552 273.171 977.449 274.355C976.286 275.602 975.747 275.6 975.794 275.6V281.6ZM986.652 271.19C989.83 265.11 992.63 257.92 995.071 249.649L989.316 247.951C986.957 255.947 984.29 262.756 981.335 268.41L986.652 271.19ZM994.849 247.404L964.449 189.604L959.139 192.396L989.539 250.196L994.849 247.404ZM964.416 189.543C961.108 183.588 958.942 179.036 957.829 175.819L952.159 177.781C953.445 181.497 955.813 186.412 959.171 192.457L964.416 189.543ZM957.829 175.819C956.681 172.503 955.86 169.273 955.356 166.126L949.431 167.074C949.995 170.594 950.907 174.164 952.159 177.781L957.829 175.819ZM952.258 163.603L943.458 164.003L943.73 169.997L952.53 169.597L952.258 163.603ZM946.594 167V153H940.594V167H946.594ZM943.594 156H991.594V150H943.594V156ZM988.594 153V164.8H994.594V153H988.594ZM991.302 161.814C988.245 162.112 985.489 162.968 983.464 164.746C981.335 166.615 980.394 169.168 980.394 172H986.394C986.394 170.566 986.819 169.785 987.423 169.254C988.132 168.632 989.476 168.021 991.885 167.786L991.302 161.814ZM980.394 172C980.394 174.638 981.263 177.446 982.71 180.342L988.077 177.658C986.858 175.221 986.394 173.362 986.394 172H980.394ZM982.671 180.261L1001.47 220.861L1006.92 218.339L988.116 177.739L982.671 180.261ZM1004.19 222.6H1004.39V216.6H1004.19V222.6ZM1007.24 220.562L1011.64 207.562L1005.95 205.638L1001.55 218.638L1007.24 220.562ZM1011.64 207.549C1016.18 193.927 1018.77 186.237 1019.42 184.409L1013.77 182.391C1013.09 184.297 1010.47 192.073 1005.95 205.651L1011.64 207.549ZM1019.41 184.433C1020.87 180.465 1022.18 177.118 1023.35 174.382L1017.84 172.018C1016.61 174.882 1015.26 178.335 1013.78 182.367L1019.41 184.433ZM1023.35 174.382C1024.47 171.768 1025.66 169.781 1026.88 168.338L1022.3 164.462C1020.59 166.485 1019.12 169.032 1017.84 172.018L1023.35 174.382ZM1027.59 166.4V166.2H1021.59V166.4H1027.59ZM1024.37 163.208L1013.57 164.008L1014.02 169.992L1024.82 169.192L1024.37 163.208ZM1016.79 167V153H1010.79V167H1016.79ZM1013.79 156H1047.99V150H1013.79V156ZM1044.99 153V164.8H1050.99V153H1044.99Z" fill="#0024DF"/>
</svg>
